<svg width="208" height="65" viewBox="0 0 208 65" fill="none" xmlns="http://www.w3.org/2000/svg">
<g clip-path="url(#clip0)">
<path d="M24.0437 21.4445H29.5704L32.1323 35.0022L34.8956 21.4445H40.2208L40.6238 44.7602H36.9681L36.5363 29.2452L33.8306 44.7602H30.5779L27.6994 29.1301L27.354 44.7602H23.6407L24.0437 21.4445ZM43.9945 21.4445H54.4722V24.9563H49.147V30.742H53.2057V34.3114H49.147V41.2773H54.5298V44.7602H43.9945V21.4445ZM56.869 21.4445H62.7699C64.7848 21.4445 66.3584 21.694 67.4906 22.1929C68.6228 22.6919 69.4192 23.4787 69.8797 24.5533C70.3595 25.6087 70.5994 27.0288 70.5994 28.8135V37.2762C70.5994 39.08 70.3595 40.5193 69.8797 41.5939C69.4192 42.6685 68.6228 43.4649 67.4906 43.9831C66.3776 44.5012 64.8232 44.7602 62.8275 44.7602H56.869V21.4445ZM62.8275 41.1909C63.5759 41.1909 64.1228 41.0854 64.4682 40.8743C64.8328 40.644 65.0631 40.3274 65.159 39.9244C65.255 39.5022 65.303 38.8881 65.303 38.0822V27.9211C65.303 27.1727 65.2454 26.6066 65.1302 26.2228C65.0343 25.8198 64.804 25.5224 64.4394 25.3305C64.094 25.1386 63.5471 25.0426 62.7987 25.0426H62.0215V41.1909H62.8275ZM73.7639 21.4445H78.9164V44.7602H73.7639V21.4445ZM85.6745 21.4445H91.5466L95.8931 44.7602H91.1436L90.3664 39.838H86.941L86.1351 44.7602H81.2704L85.6745 21.4445ZM89.8771 36.7581L88.6394 27.6621L87.4016 36.7581H89.8771ZM104.211 45.1057C101.985 45.1057 100.325 44.5204 99.2313 43.3498C98.1566 42.16 97.5809 40.2794 97.5042 37.708L101.908 37.0459C101.927 38.5235 102.1 39.5886 102.426 40.241C102.772 40.8743 103.28 41.1909 103.952 41.1909C104.816 41.1909 105.247 40.6248 105.247 39.4926C105.247 38.5907 105.036 37.8135 104.614 37.1611C104.211 36.5086 103.568 35.8082 102.685 35.0598L100.671 33.3039C99.6726 32.4595 98.8954 31.5672 98.3389 30.6269C97.8016 29.6674 97.533 28.5352 97.533 27.2303C97.533 25.2729 98.1087 23.7665 99.26 22.7111C100.431 21.6556 102.033 21.1279 104.067 21.1279C106.274 21.1279 107.771 21.7708 108.558 23.0565C109.364 24.3422 109.795 25.9062 109.853 27.7484L105.42 28.2953C105.382 27.0864 105.266 26.2228 105.075 25.7047C104.902 25.1674 104.508 24.8987 103.894 24.8987C103.453 24.8987 103.108 25.0906 102.858 25.4744C102.628 25.839 102.513 26.2516 102.513 26.7122C102.513 27.4989 102.685 28.161 103.031 28.6983C103.395 29.2356 103.971 29.8497 104.758 30.5405L106.687 32.2388C107.838 33.2175 108.73 34.2538 109.364 35.3476C109.997 36.4414 110.313 37.7367 110.313 39.2336C110.313 40.3274 110.054 41.3253 109.536 42.2272C109.037 43.1099 108.327 43.8103 107.406 44.3285C106.485 44.8466 105.42 45.1057 104.211 45.1057ZM112.808 21.4445H123.286V24.9563H117.961V30.742H122.019V34.3114H117.961V41.2773H123.344V44.7602H112.808V21.4445ZM125.683 21.4445H132.102C134.654 21.4445 136.583 21.8955 137.887 22.7974C139.192 23.6993 139.845 25.3017 139.845 27.6045C139.845 29.1589 139.643 30.3966 139.24 31.3177C138.837 32.2388 138.089 32.9585 136.995 33.4766L140.19 44.7602H134.865L132.303 34.3114H130.835V44.7602H125.683V21.4445ZM132.274 31.3465C133.311 31.3465 134.03 31.0779 134.433 30.5405C134.855 29.984 135.067 29.1589 135.067 28.065C135.067 27.0096 134.875 26.2228 134.491 25.7047C134.107 25.1674 133.445 24.8987 132.505 24.8987H130.835V31.3465H132.274ZM141.652 21.4445H146.056L148.56 37.2762L150.892 21.4445H155.555L151.295 44.7602H145.854L141.652 21.4445ZM157.897 21.4445H168.375V24.9563H163.049V30.742H167.108V34.3114H163.049V41.2773H168.432V44.7602H157.897V21.4445ZM170.771 21.4445H177.19C179.743 21.4445 181.671 21.8955 182.976 22.7974C184.281 23.6993 184.934 25.3017 184.934 27.6045C184.934 29.1589 184.732 30.3966 184.329 31.3177C183.926 32.2388 183.178 32.9585 182.084 33.4766L185.279 44.7602H179.954L177.392 34.3114H175.924V44.7602H170.771V21.4445ZM177.363 31.3465C178.399 31.3465 179.119 31.0779 179.522 30.5405C179.944 29.984 180.155 29.1589 180.155 28.065C180.155 27.0096 179.963 26.2228 179.58 25.7047C179.196 25.1674 178.534 24.8987 177.593 24.8987H175.924V31.3465H177.363Z" fill="black"/>
<rect x="18" width="172" height="16" fill="black"/>
<rect y="18.517" width="16.2429" height="28.5876" fill="black"/>
<rect x="191.757" y="18.517" width="16.2429" height="28.5876" fill="black"/>
<rect width="16.2429" height="16.2429" fill="black"/>
<rect x="191.757" width="16.2429" height="16.2429" fill="black"/>
<rect y="49.3785" width="16.2429" height="16.2429" fill="black"/>
<rect x="191.757" y="49.3785" width="16.2429" height="16.2429" fill="black"/>
<rect x="18" y="49" width="172" height="16" fill="black"/>
<circle cx="180.062" cy="57.5" r="3.89831" fill="#C5AF89"/>
<circle cx="169.992" cy="57.5" r="3.24859" stroke="white" stroke-width="1.29944"/>
<circle cx="159.921" cy="57.5" r="3.24859" fill="white" stroke="white" stroke-width="1.29944"/>
</g>
<defs>
<clipPath id="clip0">
<rect width="208" height="65" fill="white"/>
</clipPath>
</defs>
</svg>
