<?xml version="1.0" encoding="utf-8"?>
<!-- Generator: Adobe Illustrator 19.2.1, SVG Export Plug-In . SVG Version: 6.00 Build 0)  -->
<svg version="1.1" id="Layer_1" xmlns="http://www.w3.org/2000/svg" xmlns:xlink="http://www.w3.org/1999/xlink" x="0px" y="0px"
	 viewBox="0 0 116.9 31.8" style="enable-background:new 0 0 116.9 31.8;" xml:space="preserve">
<style type="text/css">
	.st0{fill:#C6AF8A;}
</style>
<g>
	<path class="st0" d="M16.4,14.9l4.5-3.6v9h-1.5v-5.9l-3,2.4l-3-2.4v5.9h-1.5v-9L16.4,14.9z"/>
	<path class="st0" d="M23.4,11.4h6v1.5h-6V11.4z M28.7,15.1v1.5h-5.3v-1.5H28.7z M23.4,20.4v-1.5h6v1.5H23.4z"/>
	<path class="st0" d="M36.6,11.8c0.5,0.2,1,0.6,1.4,1c0.4,0.4,0.7,0.9,1,1.4c0.2,0.5,0.4,1.1,0.4,1.7c0,0.6-0.1,1.2-0.4,1.8
		c-0.3,0.5-0.6,1-1,1.4c-0.4,0.4-0.9,0.7-1.4,1s-1.1,0.4-1.7,0.4h-3v-1.5h3.2c0.4,0,0.8-0.1,1.1-0.2c0.3-0.2,0.6-0.4,0.9-0.7
		s0.5-0.6,0.6-1c0.1-0.4,0.2-0.7,0.2-1.1c0-0.4-0.1-0.7-0.2-1.1c-0.1-0.4-0.3-0.7-0.6-1c-0.3-0.3-0.5-0.5-0.9-0.7
		c-0.3-0.2-0.7-0.2-1.1-0.2h-3.2v-1.5h3C35.5,11.4,36.1,11.5,36.6,11.8z"/>
	<path class="st0" d="M41.4,11.4h1.5v7.8l-1.5,1.2V11.4z"/>
	<path class="st0" d="M53.6,20.4h-1.8l-2.7-5.7l-2.7,5.7h-1.8l4.5-9L53.6,20.4z"/>
	<path class="st0" d="M58.1,15c0.1,0,0.2,0,0.3,0c0.2,0,0.3,0.1,0.5,0.1c0.2,0.1,0.4,0.2,0.6,0.3c0.2,0.1,0.4,0.3,0.6,0.5
		c0.2,0.2,0.3,0.4,0.4,0.7c0.1,0.3,0.2,0.6,0.2,1c0,0,0,0.1,0,0.2c0,0.1,0,0.3-0.1,0.5c-0.1,0.2-0.2,0.4-0.3,0.6
		c-0.1,0.2-0.3,0.4-0.6,0.6c-0.2,0.2-0.5,0.4-0.9,0.5c-0.4,0.1-0.8,0.2-1.3,0.2c-0.5,0-1-0.1-1.4-0.3c-0.4-0.2-0.8-0.5-1.1-0.8
		l1.2-0.9c0,0,0,0,0.1,0.1c0.1,0.1,0.1,0.1,0.3,0.2c0.1,0.1,0.3,0.1,0.4,0.2c0.2,0.1,0.4,0.1,0.6,0.1c0.5,0,0.8-0.1,1.1-0.4
		c0.3-0.2,0.4-0.5,0.4-0.8c0-0.2,0-0.4-0.1-0.6c-0.1-0.1-0.2-0.3-0.4-0.4c-0.2-0.1-0.4-0.2-0.6-0.2c-0.2-0.1-0.4-0.1-0.7-0.1
		c-0.1,0-0.2,0-0.3-0.1c-0.1,0-0.3-0.1-0.5-0.2c-0.2-0.1-0.4-0.2-0.6-0.3c-0.2-0.1-0.4-0.3-0.5-0.4c-0.2-0.2-0.3-0.4-0.4-0.6
		c-0.1-0.3-0.2-0.5-0.2-0.9c0,0,0-0.1,0-0.2c0-0.1,0-0.3,0.1-0.5s0.2-0.4,0.3-0.6c0.1-0.2,0.3-0.4,0.6-0.6c0.2-0.2,0.5-0.3,0.9-0.4
		c0.4-0.1,0.8-0.2,1.3-0.2c0.5,0,1,0.1,1.4,0.3c0.4,0.2,0.8,0.5,1.1,0.9l-1.2,0.9c-0.1-0.2-0.2-0.3-0.4-0.4s-0.3-0.1-0.5-0.2
		c-0.2,0-0.4-0.1-0.6-0.1c-0.5,0-0.8,0.1-1.1,0.3c-0.3,0.2-0.4,0.4-0.4,0.8c0,0.2,0,0.4,0.1,0.5c0.1,0.1,0.2,0.2,0.3,0.3
		c0.1,0.1,0.3,0.1,0.5,0.2C57.7,15,57.9,15,58.1,15z"/>
	<path class="st0" d="M62.8,11.4h6v1.5h-6V11.4z M68.2,15.1v1.5h-5.3v-1.5H68.2z M62.8,20.4v-1.5h6v1.5H62.8z"/>
	<path class="st0" d="M78.3,20.4h-1.7l-2-3.7h-3.3v-1.5h4.3c0.2,0,0.3-0.1,0.5-0.1c0.1-0.1,0.2-0.2,0.3-0.3c0.1-0.2,0.2-0.4,0.2-0.7
		c0-0.3-0.1-0.5-0.2-0.7s-0.2-0.3-0.3-0.3c-0.1-0.1-0.3-0.1-0.5-0.1h-4.3v-1.5h4.3c0.5,0,0.9,0.1,1.2,0.3c0.2,0.1,0.3,0.2,0.5,0.3
		c0.2,0.1,0.3,0.3,0.4,0.5c0.1,0.2,0.2,0.4,0.3,0.7c0.1,0.3,0.1,0.5,0.1,0.9c0,0.5-0.1,1-0.3,1.3c-0.2,0.3-0.4,0.6-0.6,0.8
		c-0.2,0.2-0.4,0.3-0.6,0.4c-0.2,0.1-0.3,0.1-0.4,0.1L78.3,20.4z"/>
	<path class="st0" d="M79.4,11.4h1.8l2.7,5.7l2.7-5.7h1.8l-4.5,9L79.4,11.4z"/>
	<path class="st0" d="M90,11.4h6v1.5h-6V11.4z M95.3,15.1v1.5H90v-1.5H95.3z M90,20.4v-1.5h6v1.5H90z"/>
	<path class="st0" d="M105.5,20.4h-1.7l-2-3.7h-3.3v-1.5h4.3c0.2,0,0.3-0.1,0.5-0.1c0.1-0.1,0.2-0.2,0.3-0.3
		c0.1-0.2,0.2-0.4,0.2-0.7c0-0.3-0.1-0.5-0.2-0.7c-0.1-0.2-0.2-0.3-0.3-0.3c-0.1-0.1-0.3-0.1-0.5-0.1h-4.3v-1.5h4.3
		c0.5,0,0.9,0.1,1.2,0.3c0.2,0.1,0.3,0.2,0.5,0.3c0.2,0.1,0.3,0.3,0.4,0.5s0.2,0.4,0.3,0.7c0.1,0.3,0.1,0.5,0.1,0.9
		c0,0.5-0.1,1-0.3,1.3s-0.4,0.6-0.6,0.8c-0.2,0.2-0.4,0.3-0.6,0.4c-0.2,0.1-0.3,0.1-0.4,0.1L105.5,20.4z"/>
</g>
<rect x="107.8" y="11.4" class="st0" width="9" height="9"/>
<rect x="0" class="st0" width="116.8" height="9"/>
<rect y="11.4" class="st0" width="9" height="9"/>
<path class="st0" d="M0,22.8v9h116.8v-9H0z M16.6,29.1H13v-3.5h3.5V29.1z M22.3,29.1h-3.5v-3.5h3.5V29.1z M27.8,29.1h-3.5v-3.5h3.5
	V29.1z"/>
</svg>
