<?xml version="1.0" encoding="utf-8"?>
<!-- Generator: Adobe Illustrator 19.2.1, SVG Export Plug-In . SVG Version: 6.00 Build 0)  -->
<svg version="1.1" id="Layer_1" xmlns="http://www.w3.org/2000/svg" xmlns:xlink="http://www.w3.org/1999/xlink" x="0px" y="0px"
	 viewBox="0 0 166.5 81" style="enable-background:new 0 0 166.5 81;" xml:space="preserve">
<style type="text/css">
	.st0{fill:#FFFFFF;}
</style>
<g>
	<path class="st0" d="M42.5,40.4l4.5-3.6v9h-1.5v-5.9l-3,2.4l-3-2.4v5.9H38v-9L42.5,40.4z"/>
	<path class="st0" d="M49.5,36.8h6v1.5h-6V36.8z M54.9,40.6v1.5h-5.3v-1.5H54.9z M49.5,45.8v-1.5h6v1.5H49.5z"/>
	<path class="st0" d="M62.8,37.2c0.5,0.2,1,0.6,1.4,1c0.4,0.4,0.7,0.9,1,1.4s0.4,1.1,0.4,1.7c0,0.6-0.1,1.2-0.4,1.8
		c-0.3,0.5-0.6,1-1,1.4c-0.4,0.4-0.9,0.7-1.4,1s-1.1,0.4-1.7,0.4h-3v-1.5h3.2c0.4,0,0.8-0.1,1.1-0.2c0.3-0.2,0.6-0.4,0.9-0.7
		s0.5-0.6,0.6-1c0.1-0.4,0.2-0.7,0.2-1.1s-0.1-0.7-0.2-1.1c-0.1-0.4-0.3-0.7-0.6-1c-0.3-0.3-0.5-0.5-0.9-0.7
		c-0.3-0.2-0.7-0.2-1.1-0.2h-3.2v-1.5h3C61.7,36.8,62.3,37,62.8,37.2z"/>
	<path class="st0" d="M67.6,36.8h1.5v7.8l-1.5,1.2V36.8z"/>
	<path class="st0" d="M79.8,45.8H78l-2.7-5.7l-2.7,5.7h-1.8l4.5-9L79.8,45.8z"/>
	<path class="st0" d="M84.3,40.5c0.1,0,0.2,0,0.3,0c0.2,0,0.3,0.1,0.5,0.1c0.2,0.1,0.4,0.2,0.6,0.3c0.2,0.1,0.4,0.3,0.6,0.5
		c0.2,0.2,0.3,0.4,0.4,0.7c0.1,0.3,0.2,0.6,0.2,1c0,0,0,0.1,0,0.2c0,0.1,0,0.3-0.1,0.5c-0.1,0.2-0.2,0.4-0.3,0.6
		c-0.1,0.2-0.3,0.4-0.6,0.6c-0.2,0.2-0.5,0.4-0.9,0.5c-0.4,0.1-0.8,0.2-1.3,0.2c-0.5,0-1-0.1-1.4-0.3c-0.4-0.2-0.8-0.5-1.1-0.8
		l1.2-0.9c0,0,0,0,0.1,0.1c0.1,0.1,0.1,0.1,0.3,0.2c0.1,0.1,0.3,0.1,0.4,0.2c0.2,0.1,0.4,0.1,0.6,0.1c0.5,0,0.8-0.1,1.1-0.4
		c0.3-0.2,0.4-0.5,0.4-0.8c0-0.2,0-0.4-0.1-0.6c-0.1-0.1-0.2-0.3-0.4-0.4c-0.2-0.1-0.4-0.2-0.6-0.2c-0.2-0.1-0.4-0.1-0.7-0.1
		c-0.1,0-0.2,0-0.3-0.1c-0.1,0-0.3-0.1-0.5-0.2c-0.2-0.1-0.4-0.2-0.6-0.3c-0.2-0.1-0.4-0.3-0.5-0.4c-0.2-0.2-0.3-0.4-0.4-0.6
		c-0.1-0.3-0.2-0.5-0.2-0.9c0,0,0-0.1,0-0.2c0-0.1,0-0.3,0.1-0.5s0.2-0.4,0.3-0.6c0.1-0.2,0.3-0.4,0.6-0.6c0.2-0.2,0.5-0.3,0.9-0.4
		c0.4-0.1,0.8-0.2,1.3-0.2c0.5,0,1,0.1,1.4,0.3c0.4,0.2,0.8,0.5,1.1,0.9l-1.2,0.9c-0.1-0.2-0.2-0.3-0.4-0.4s-0.3-0.1-0.5-0.2
		c-0.2,0-0.4-0.1-0.6-0.1c-0.5,0-0.8,0.1-1.1,0.3c-0.3,0.2-0.4,0.4-0.4,0.8c0,0.2,0,0.4,0.1,0.5c0.1,0.1,0.2,0.2,0.3,0.3
		c0.1,0.1,0.3,0.1,0.5,0.2C83.8,40.4,84,40.5,84.3,40.5z"/>
	<path class="st0" d="M89,36.8h6v1.5h-6V36.8z M94.3,40.6v1.5H89v-1.5H94.3z M89,45.8v-1.5h6v1.5H89z"/>
	<path class="st0" d="M104.5,45.8h-1.7l-2-3.7h-3.3v-1.5h4.3c0.2,0,0.3-0.1,0.5-0.1c0.1-0.1,0.2-0.2,0.3-0.3
		c0.1-0.2,0.2-0.4,0.2-0.7c0-0.3-0.1-0.5-0.2-0.7s-0.2-0.3-0.3-0.3c-0.1-0.1-0.3-0.1-0.5-0.1h-4.3v-1.5h4.3c0.5,0,0.9,0.1,1.2,0.3
		c0.2,0.1,0.3,0.2,0.5,0.3c0.2,0.1,0.3,0.3,0.4,0.5c0.1,0.2,0.2,0.4,0.3,0.7c0.1,0.3,0.1,0.5,0.1,0.9c0,0.5-0.1,1-0.3,1.3
		c-0.2,0.3-0.4,0.6-0.6,0.8c-0.2,0.2-0.4,0.3-0.6,0.4c-0.2,0.1-0.3,0.1-0.4,0.1L104.5,45.8z"/>
	<path class="st0" d="M105.6,36.8h1.8l2.7,5.7l2.7-5.7h1.8l-4.5,9L105.6,36.8z"/>
	<path class="st0" d="M116.1,36.8h6v1.5h-6V36.8z M121.5,40.6v1.5h-5.3v-1.5H121.5z M116.1,45.8v-1.5h6v1.5H116.1z"/>
	<path class="st0" d="M131.6,45.8H130l-2-3.7h-3.3v-1.5h4.3c0.2,0,0.3-0.1,0.5-0.1c0.1-0.1,0.2-0.2,0.3-0.3c0.1-0.2,0.2-0.4,0.2-0.7
		c0-0.3-0.1-0.5-0.2-0.7c-0.1-0.2-0.2-0.3-0.3-0.3c-0.1-0.1-0.3-0.1-0.5-0.1h-4.3v-1.5h4.3c0.5,0,0.9,0.1,1.2,0.3
		c0.2,0.1,0.3,0.2,0.5,0.3c0.2,0.1,0.3,0.3,0.4,0.5s0.2,0.4,0.3,0.7c0.1,0.3,0.1,0.5,0.1,0.9c0,0.5-0.1,1-0.3,1.3s-0.4,0.6-0.6,0.8
		c-0.2,0.2-0.4,0.3-0.6,0.4c-0.2,0.1-0.3,0.1-0.4,0.1L131.6,45.8z"/>
</g>
<rect x="134" y="36.8" class="st0" width="9" height="9"/>
<rect x="26.2" y="25.5" class="st0" width="116.8" height="9"/>
<rect x="26.2" y="36.8" class="st0" width="9" height="9"/>
<path class="st0" d="M26.2,48.3v9H143v-9H26.2z M42.7,54.5h-3.5V51h3.5V54.5z M48.4,54.5h-3.5V51h3.5V54.5z M53.9,54.5h-3.5V51h3.5
	V54.5z"/>
</svg>
